<svg width="413" height="413" viewBox="0 0 413 413" fill="none" xmlns="http://www.w3.org/2000/svg">
<path d="M206.5 206.5V0.5" stroke="#C084FC"/>
<path d="M206.5 206.5L402.418 142.843" stroke="#C084FC"/>
<path d="M206.5 206.5L327.584 373.157" stroke="#C084FC"/>
<path d="M206.5 206.5L85.416 373.157" stroke="#C084FC"/>
<path d="M206.5 206.5L10.5825 142.843" stroke="#C084FC"/>
<path d="M206.5 412.5C320.271 412.5 412.5 320.271 412.5 206.5C412.5 92.7293 320.271 0.5 206.5 0.5C92.7293 0.5 0.5 92.7293 0.5 206.5C0.5 320.271 92.7293 412.5 206.5 412.5Z" stroke="#C084FC"/>
<path d="M206.5 371.3C297.517 371.3 371.3 297.517 371.3 206.5C371.3 115.483 297.517 41.7 206.5 41.7C115.484 41.7 41.7002 115.483 41.7002 206.5C41.7002 297.517 115.484 371.3 206.5 371.3Z" stroke="#C084FC"/>
<path d="M206.5 330.1C274.762 330.1 330.1 274.762 330.1 206.5C330.1 138.238 274.762 82.9 206.5 82.9C138.238 82.9 82.8999 138.238 82.8999 206.5C82.8999 274.762 138.238 330.1 206.5 330.1Z" stroke="#C084FC"/>
<path d="M206.5 288.9C252.008 288.9 288.9 252.008 288.9 206.5C288.9 160.992 252.008 124.1 206.5 124.1C160.992 124.1 124.1 160.992 124.1 206.5C124.1 252.008 160.992 288.9 206.5 288.9Z" stroke="#C084FC"/>
<path d="M206.5 247.7C229.254 247.7 247.7 229.254 247.7 206.5C247.7 183.746 229.254 165.3 206.5 165.3C183.746 165.3 165.3 183.746 165.3 206.5C165.3 229.254 183.746 247.7 206.5 247.7Z" stroke="#C084FC"/>
<path d="M206.354 112.174L376.575 152.289L278.616 305.759L130.823 310.661L71.0864 162.501L206.354 112.174Z" fill="#D8B4FE"/>
<path d="M206.354 112.174L376.575 152.289L278.616 305.759L130.823 310.661L71.0864 162.501L206.354 112.174Z" stroke="#C084FC" stroke-width="2"/>
<path d="M206.5 53.5146L330.389 166.246L259.029 278.8L181.571 240.812L48.0371 155.012L206.5 53.5146Z" fill="#D8B4FE"/>
<path d="M206.5 53.5146L330.389 166.246L259.029 278.8L181.571 240.812L48.0371 155.012L206.5 53.5146Z" stroke="#9333EA" stroke-width="2"/>
</svg>
